HIERARCHY
ROOT Hips
{
	OFFSET 0.000000 0.000000 0.000000 
	CHANNELS 6 Xposition Yposition Zposition Yrotation Zrotation Xrotation 
	JOINT Lumbar
	{
		OFFSET 0.000000 0.000000 0.000000 
		CHANNELS 3 Zrotation Xrotation Yrotation
		JOINT Neck
		{
			OFFSET 0.000000 0.445665 0.000000 
			CHANNELS 3 Zrotation Xrotation Yrotation
			End Site
			{
				OFFSET 0.000000 0.227535 0.000000 
			}
		}
		JOINT RightShoulder
		{
			OFFSET 0.019635 0.377685 0.194865 
			CHANNELS 3 Zrotation Xrotation Yrotation
			JOINT RightElbow
			{
				OFFSET 0.000000 -0.243375 0.000000 
				CHANNELS 2 Zrotation Yrotation
				JOINT RightWrist
				{
					OFFSET 0.000000 -0.264825 0.000000 
					CHANNELS 2 Zrotation Xrotation
					End Site
					{
						OFFSET 0.006600 -0.176220 0.000990 
					}
				}
			}
		}
		JOINT LeftShoulder
		{
			OFFSET 0.019635 0.377685 -0.194865 
			CHANNELS 3 Zrotation Xrotation Yrotation
			JOINT LeftElbow
			{
				OFFSET 0.000000 -0.243375 0.000000 
				CHANNELS 2 Zrotation Yrotation
				JOINT LeftWrist
				{
					OFFSET 0.000000 -0.264825 0.000000 
					CHANNELS 2 Zrotation Xrotation
					End Site
					{
						OFFSET 0.006600 -0.176220 -0.000990 
					}
				}
			}
		}
	}
	JOINT RightHip
	{
		OFFSET 0.052140 -0.069960 0.075570 
		CHANNELS 3 Zrotation Xrotation Yrotation
		JOINT RightKnee
		{
			OFFSET 0.000000 -0.402270 0.000000 
			CHANNELS 1 Zrotation
			JOINT RightAnkle
			{
				OFFSET 0.000000 -0.404085 0.000000 
				CHANNELS 3 Zrotation Xrotation Yrotation
				End Site
				{
					OFFSET 0.204105 -0.089430 0.008415 
				}
			}
		}
	}
	JOINT LeftHip
	{
		OFFSET 0.052140 -0.069960 -0.075570 
		CHANNELS 3 Zrotation Xrotation Yrotation
		JOINT LeftKnee
		{
			OFFSET 0.000000 -0.402270 0.000000 
			CHANNELS 1 Zrotation
			JOINT LeftAnkle
			{
				OFFSET 0.000000 -0.404085 0.000000 
				CHANNELS 3 Zrotation Xrotation Yrotation
				End Site
				{
					OFFSET 0.204105 -0.089430 -0.008415 
				}
			}
		}
	}
}
MOTION
Frames: 33
Frame Time: 0.02
-0.0001 -6e-05 -0.0003 -179.56951 -35.81603 -3.1343 43.18046 2.49095 -5.06847 -12.78312 -1.75831 -1.37191 71.84596 -102.60896 55.63409 5.78691 106.12307 13.46567 2.77018 52.02651 102.45055 -55.63407 6.66205 -91.51691 10.7364 0.91168 39.20795 -2.38261 -9.49318 -21.99886 -6.71683 -2.51534 -3.47241 44.62978 8.65044 1.14132 -27.67942 -6.67687 2.26486 3.34935
-0.0006 -8e-05 -0.00027 -179.54388 -35.59161 -3.12873 42.9868 2.4792 -5.08793 -12.7964 -1.75999 -1.3725 71.84061 -102.6223 55.63409 5.78691 106.12178 13.47307 2.76753 52.15437 102.46613 -55.63407 6.65347 -91.47781 10.73923 0.87649 38.89198 -2.39867 -9.6257 -21.94766 -6.71358 -2.51039 -3.46784 44.32816 8.70366 1.35636 -27.64896 -6.6711 2.24778 3.33882
-0.0011 -0.0001 -0.00024 -179.51841 -35.36814 -3.12319 42.79402 2.46748 -5.10728 -12.80962 -1.76166 -1.37309 71.83544 -102.63559 55.63409 5.78691 106.1205 13.48042 2.76493 52.28188 102.48169 -55.63407 6.6449 -91.43876 10.74203 0.84139 38.57728 -2.41473 -9.75803 -21.89669 -6.71033 -2.50543 -3.46327 44.02774 8.75678 1.571 -27.61864 -6.66534 2.23073 3.32831
-0.00161 -0.00012 -0.00021 -179.49288 -35.14447 -3.11763 42.60101 2.45577 -5.12667 -12.82286 -1.76333 -1.37368 71.83013 -102.64888 55.6341 5.78691 106.11921 13.48779 2.76229 52.40936 102.49722 -55.63407 6.63635 -91.39976 10.74486 0.80632 38.26234 -2.43075 -9.89019 -21.84567 -6.70708 -2.50049 -3.45871 43.72711 8.80985 1.78543 -27.58828 -6.65959 2.2137 3.31781
-0.00211 -0.00014 -0.00018 -179.46715 -34.91972 -3.11203 42.40699 2.44403 -5.14619 -12.83615 -1.76501 -1.37427 71.82457 -102.66224 55.6341 5.78691 106.1179 13.49524 2.7596 52.53716 102.51275 -55.63407 6.62776 -91.36073 10.74772 0.77116 37.94601 -2.44674 -10.02241 -21.79439 -6.70385 -2.49559 -3.45417 43.42517 8.86299 2.00014 -27.55779 -6.65382 2.19663 3.30729
-0.00261 -0.00016 -0.00014 -179.4422 -34.69895 -3.10662 42.21682 2.43235 -5.16519 -12.84924 -1.76665 -1.37486 71.82024 -102.67538 55.6341 5.78691 106.11668 13.50238 2.75718 52.66406 102.52839 -55.63407 6.61925 -91.32166 10.75039 0.73619 37.63473 -2.46295 -10.15496 -21.74405 -6.70057 -2.49048 -3.44955 43.12794 8.91606 2.21462 -27.52781 -6.64809 2.17963 3.29682
-0.00311 -0.00019 -0.00011 -179.41575 -34.47049 -3.10084 42.01919 2.42056 -5.1852 -12.86273 -1.76836 -1.37545 71.81343 -102.68893 55.6341 5.78691 106.11527 13.51013 2.75421 52.79265 102.5438 -55.63407 6.61061 -91.28269 10.75345 0.70088 37.31372 -2.47871 -10.28677 -21.69191 -6.69737 -2.48579 -3.44507 42.82164 8.96922 2.42935 -27.49684 -6.64229 2.16252 3.28626
-0.00361 -0.00021 -8e-05 -179.39064 -34.24898 -3.0954 41.82829 2.40887 -5.20429 -12.87584 -1.77001 -1.37604 71.80893 -102.70211 55.6341 5.78691 106.11405 13.51731 2.75175 52.91966 102.5594 -55.63407 6.60208 -91.24367 10.75615 0.66589 37.0015 -2.49486 -10.41916 -21.64139 -6.69411 -2.48073 -3.44047 42.52355 9.02229 2.64382 -27.46677 -6.63655 2.1455 3.27578
-0.00411 -0.00023 -4e-05 -179.36735 -34.03649 -3.09039 41.64617 2.39731 -5.22222 -12.88853 -1.7716 -1.37663 71.80717 -102.71481 55.6341 5.7869 106.11303 13.5238 2.74992 53.04486 102.57531 -55.63407 6.59368 -91.2044 10.7584 0.63123 36.70066 -2.51159 -10.55276 -21.59297 -6.69074 -2.47513 -3.43569 42.23603 9.07531 2.85819 -27.43785 -6.63088 2.12864 3.26539
-0.00463 -0.00025 -2e-05 -179.33411 -33.77368 -3.08294 41.41521 2.38503 -5.2467 -12.90377 -1.77357 -1.37721 71.78942 -102.7302 55.6341 5.7869 106.11075 13.53428 2.74449 53.18085 102.58969 -55.63407 6.58452 -91.16602 10.76322 0.59452 36.33626 -2.52533 -10.68092 -21.53286 -6.6879 -2.4724 -3.43184 41.88932 9.12877 3.07384 -27.40246 -6.62483 2.11098 3.25449
-0.0051 -0.00027 2e-05 -179.32154 -33.61601 -3.08061 41.28621 2.37427 -5.25747 -12.91356 -1.77471 -1.37782 71.80552 -102.73996 55.63411 5.7869 106.11121 13.53635 2.74661 53.29383 102.60711 -55.63406 6.577 -91.12612 10.76262 0.56223 36.10475 -2.54513 -10.81953 -21.49715 -6.68399 -2.46376 -3.42611 41.66642 9.18121 3.2863 -27.38062 -6.61956 2.09495 3.24464
-0.00549 -0.0003 9e-05 -179.36878 -33.75813 -3.0926 41.44884 2.36769 -5.22922 -12.90874 -1.77369 -1.37848 71.91468 -102.73394 55.63411 5.7869 106.1185 13.51505 2.77014 53.34546 102.63455 -55.63407 6.57381 -91.07896 10.74711 0.54122 36.2516 -2.58379 -10.99564 -21.53133 -6.67684 -2.43746 -3.41459 41.79556 9.2317 3.49401 -27.39704 -6.61649 2.08387 3.23785
-0.00585 -0.00034 0.00017 -179.43619 -34.00377 -3.10967 41.7117 2.36265 -5.18744 -12.89838 -1.77181 -1.37917 72.05782 -102.72234 55.63411 5.7869 106.12861 13.48532 2.80112 53.37384 102.66472 -55.63407 6.57231 -91.03083 10.72617 0.52478 36.52945 -2.62813 -11.18063 -21.5895 -6.66869 -2.40549 -3.4013 42.04682 9.28098 3.69771 -27.42686 -6.61418 2.07435 3.23209
-0.00622 -0.00037 0.00025 -179.49236 -34.1946 -3.12422 41.92094 2.35691 -5.15273 -12.89031 -1.77023 -1.37984 72.18532 -102.71353 55.63411 5.7869 106.13797 13.45966 2.82828 53.41149 102.69255 -55.63405 6.57015 -90.9852 10.70777 0.50679 36.73831 -2.66839 -11.35576 -21.63478 -6.66121 -2.37704 -3.38921 42.23409 9.3303 3.90071 -27.44982 -6.61146 2.06377 3.22574
-0.0066 -0.00041 0.00032 -179.55737 -34.41821 -3.13968 42.16433 2.35117 -5.11409 -12.88317 -1.76899 -1.38053 72.3137 -102.70367 55.63411 5.7869 106.14534 13.43309 2.85733 53.45384 102.72508 -55.6341 6.56755 -90.931 10.68907 0.48663 36.98702 -2.71491 -11.55542 -21.68842 -6.65283 -2.34459 -3.37543 42.45715 9.38188 4.11461 -27.47603 -6.60898 2.0546 3.21986
-0.00694 -0.00044 0.00041 -179.60867 -34.59837 -3.15444 42.36051 2.34579 -5.08046 -12.87282 -1.76686 -1.38118 72.44831 -102.69466 55.63411 5.7869 106.15719 13.40628 2.88415 53.48179 102.74841 -55.63402 6.56626 -90.89426 10.6697 0.472 37.18418 -2.74981 -11.7062 -21.73042 -6.64609 -2.31913 -3.36477 42.63501 9.42833 4.30453 -27.49867 -6.60621 2.04296 3.2133
-0.00718 -0.00047 0.00053 -179.61767 -34.63032 -3.16625 42.39984 2.34106 -5.06381 -12.85467 -1.7623 -1.38169 72.59182 -102.68948 55.6341 5.7869 106.18355 13.38194 2.90349 53.4684 102.7461 -55.63357 6.56817 -90.90726 10.64989 0.47234 37.2029 -2.75052 -11.71874 -21.73356 -6.64413 -2.31439 -3.36323 42.6542 9.46188 4.43156 -27.508 -6.6024 2.02345 3.20425
-0.00739 -0.00049 0.00068 -179.61209 -34.6155 -3.17716 42.38853 2.33663 -5.05266 -12.83357 -1.75691 -1.38215 72.74042 -102.68532 55.6341 5.78691 106.21379 13.35745 2.92022 53.44282 102.73434 -55.63301 6.57138 -90.93764 10.62956 0.47795 37.16595 -2.73947 -11.68199 -21.72429 -6.64386 -2.31687 -3.3649 42.6244 9.49005 4.53392 -27.51331 -6.5983 2.00154 3.19455
-0.00761 -0.00052 0.00082 -179.61282 -34.62396 -3.18836 42.40163 2.33203 -5.03913 -12.81399 -1.752 -1.38264 72.88669 -102.68068 55.6341 5.7869 106.24037 13.33232 2.93786 53.42744 102.72664 -55.63253 6.57391 -90.95921 10.60942 0.48062 37.15704 -2.73427 -11.66851 -21.72122 -6.64283 -2.316 -3.36508 42.61957 9.5201 4.64628 -27.52058 -6.59441 1.98116 3.18537
-0.00785 -0.00054 0.00095 -179.61551 -34.62745 -3.20021 42.41233 2.32759 -5.02479 -12.79338 -1.74659 -1.38313 73.03423 -102.67604 55.6341 5.78691 106.27502 13.30985 2.95705 53.39104 102.72009 -55.63192 6.57669 -90.98456 10.58931 0.48574 37.14103 -2.7271 -11.65161 -21.71663 -6.64175 -2.31521 -3.36535 42.60754 9.55275 4.7645 -27.52775 -6.59021 1.95895 3.17528
-0.00804 -0.00056 0.0011 -179.61047 -34.62889 -3.21044 42.41472 2.32291 -5.01343 -12.77439 -1.74205 -1.38359 73.17986 -102.67155 55.6341 5.78691 106.29381 13.28194 2.97215 53.39649 102.70881 -55.63155 6.5795 -91.00623 10.56905 0.48698 37.125 -2.72121 -11.63008 -21.71196 -6.64118 -2.31604 -3.36622 42.59736 9.57842 4.86359 -27.534 -6.58657 1.94003 3.16694
-0.00812 -0.00058 0.0013 -179.587 -34.63523 -3.2165 42.40585 2.31701 -5.01057 -12.75981 -1.74015 -1.38402 73.31887 -102.66862 55.6341 5.78689 106.26624 13.23862 2.97766 53.51513 102.68745 -55.63192 6.57993 -91.01295 10.5489 0.47603 37.12094 -2.72128 -11.60705 -21.70979 -6.64153 -2.31962 -3.36805 42.60278 9.58896 4.92651 -27.53865 -6.58454 1.93013 3.16317
-0.00816 -0.0006 0.00151 -179.55634 -34.6408 -3.22093 42.39 2.31094 -5.01027 -12.74714 -1.73915 -1.38442 73.45546 -102.66549 55.6341 5.78694 106.22212 13.18985 2.97881 53.67746 102.66163 -55.63253 6.58095 -91.01548 10.52852 0.46104 37.11846 -2.72305 -11.58105 -21.70792 -6.64233 -2.32462 -3.37039 42.61142 9.59234 4.96973 -27.54246 -6.58309 1.92369 3.1612
-0.00822 -0.00061 0.00172 -179.52922 -34.64681 -3.22605 42.37731 2.30522 -5.00789 -12.73414 -1.73773 -1.38483 73.59327 -102.66168 55.6341 5.78687 106.18756 13.144 2.98135 53.82338 102.63728 -55.63301 6.5828 -91.02029 10.50806 0.448 37.11563 -2.72433 -11.557 -21.706 -6.64295 -2.32896 -3.37249 42.61897 9.59694 5.01419 -27.54664 -6.58137 1.9161 3.15868
-0.00828 -0.00063 0.00193 -179.50021 -34.65084 -3.23134 42.36294 2.29827 -5.00972 -12.71877 -1.73635 -1.38524 73.73149 -102.66152 55.6341 5.78689 106.14757 13.09661 2.9867 53.95417 102.61454 -55.63357 6.57918 -91.02411 10.48855 0.43457 37.10926 -2.72417 -11.52911 -21.70325 -6.64355 -2.33356 -3.37473 42.62334 9.60918 5.08762 -27.55072 -6.57965 1.90677 3.15513
-0.00832 -0.00065 0.00214 -179.47395 -34.65943 -3.23592 42.35108 2.29393 -5.00312 -12.70883 -1.73508 -1.38565 73.86731 -102.65323 55.63411 5.78708 106.11112 13.05069 2.98469 54.1272 102.58803 -55.63403 6.5882 -91.02877 10.4668 0.42103 37.11152 -2.72735 -11.50862 -21.70251 -6.64428 -2.33791 -3.37676 42.63568 9.60482 5.09978 -27.55486 -6.5781 1.90175 3.15403
-0.0083 -0.00064 0.00238 -179.4543 -34.68052 -3.23859 42.34775 2.29626 -4.97431 -12.71347 -1.73431 -1.38603 74.00431 -102.62657 55.63411 5.78647 106.12064 13.01402 2.96742 54.40542 102.5481 -55.6341 6.62342 -91.03691 10.44035 0.40737 37.13566 -2.74115 -11.51445 -21.70685 -6.6452 -2.34087 -3.37787 42.6697 9.54813 4.91728 -27.55956 -6.5767 1.90947 3.16051
-0.00825 -0.00063 0.00263 -179.43823 -34.70645 -3.24061 42.34745 2.30134 -4.93666 -12.7236 -1.73355 -1.38642 74.13742 -102.59102 55.63408 5.78744 106.12823 12.97818 2.94196 54.72534 102.50553 -55.63406 6.67368 -91.04608 10.41122 0.39387 37.16892 -2.75799 -11.5273 -21.71332 -6.64626 -2.34354 -3.37876 42.71177 9.47636 4.67879 -27.56433 -6.5755 1.92116 3.1692
-0.00821 -0.00062 0.00287 -179.42244 -34.73064 -3.2432 42.34608 2.30557 -4.90183 -12.73107 -1.73253 -1.38681 74.26774 -102.5568 55.63415 5.78702 106.11565 12.93958 2.91787 55.02606 102.46664 -55.63407 6.72169 -91.05439 10.38253 0.38077 37.19935 -2.77225 -11.53353 -21.71912 -6.64731 -2.34654 -3.37988 42.75015 9.41719 4.48691 -27.56897 -6.57433 1.92993 3.17602
-0.00818 -0.00062 0.00314 -179.39847 -34.75303 -3.24473 42.34316 2.30814 -4.87188 -12.7389 -1.73261 -1.38715 74.41787 -102.53381 55.63406 5.7846 106.19151 12.91133 2.90431 55.32724 102.41627 -55.63407 6.74727 -91.06357 10.35769 0.36546 37.22451 -2.7915 -11.55331 -21.72366 -6.64816 -2.3488 -3.3805 42.78884 9.3343 4.20821 -27.57403 -6.57266 1.94338 3.18645
-0.00813 -0.0006 0.00334 -179.39232 -34.7801 -3.24814 42.34425 2.3148 -4.82996 -12.74774 -1.73039 -1.38761 74.52506 -102.4856 55.63403 5.7928 106.08272 12.86121 2.86596 55.63943 102.39029 -55.63408 6.82702 -91.07205 10.32349 0.35495 37.2625 -2.80122 -11.54756 -21.73132 -6.64941 -2.35244 -3.38205 42.82863 9.29634 4.09324 -27.57822 -6.57207 1.94817 3.19002
-0.00801 -0.00057 0.00339 -179.43588 -34.82078 -3.25853 42.35629 2.33237 -4.75446 -12.75408 -1.72193 -1.38843 74.519 -102.36655 55.63416 5.77935 105.46411 12.75557 2.7695 55.9512 102.42285 -55.63408 7.02002 -91.07091 10.27071 0.35673 37.3363 -2.78232 -11.46154 -21.7472 -6.65206 -2.36049 -3.38659 42.87069 9.39482 4.47947 -27.5802 -6.57455 1.92658 3.17255
-0.00788 -0.00054 0.00336 -179.49702 -34.86561 -3.27053 42.37222 2.35394 -4.66774 -12.76208 -1.71109 -1.38938 74.46741 -102.22249 55.6328 5.78692 104.65859 12.627 2.64685 56.27766 102.4814 -55.63406 7.27353 -91.0702 10.20769 0.36348 37.42218 -2.75401 -11.35123 -21.76612 -6.65504 -2.36981 -3.39198 42.91331 9.53752 5.02607 -27.58125 -6.5781 1.89642 3.14836
